<svg width="40" height="15" viewBox="0 0 40 15" fill="none" xmlns="http://www.w3.org/2000/svg">
<path d="M0 6.87598V9.21237C11.0932 4.1695 14.7754 20.2567 37.292 10.4714C38.0947 10.1238 38.7792 9.54473 39.2607 8.80607C39.742 8.06741 39.9992 7.20164 40 6.31612C15.4337 18.4503 11.6371 1.60875 0.525556 6.09052C0.370556 6.15309 0.237619 6.26138 0.143928 6.40141C0.0502354 6.54143 9.98076e-05 6.70675 0 6.87598Z" fill="#458985"/>
<path d="M39.8948 1.00468C32.523 -2.3464 28.424 3.63323 19.8954 5.15109C24.6977 6.00574 30.9055 5.44505 39.8948 1.00468Z" fill="#67C973"/>
<path d="M0 5.12237C11.4501 -0.0836001 15.0051 17.2237 39.5246 5.35493C39.6667 5.28622 39.7868 5.17809 39.871 5.04306C39.9551 4.90801 39.9999 4.75157 40 4.59183V2.22571C17.7303 13.2253 12.5285 0.41388 3.47296 1.26117C2.52381 1.3497 1.64148 1.79474 0.998994 2.50905C0.356513 3.22335 0.000230389 4.15538 0 5.12237Z" fill="#458985"/>
<path d="M0.105316 10.5165C7.47561 7.16538 11.5753 13.145 20.1038 14.6631C15.3004 15.5174 9.09377 14.9568 0.105316 10.5165Z" fill="#EF980C"/>
</svg>
